<svg width="12" height="13" viewBox="0 0 12 13" fill="none" xmlns="http://www.w3.org/2000/svg">
<g clip-path="url(#clip0_15788_7421)">
<path fill-rule="evenodd" clip-rule="evenodd" d="M6.00002 0.84375L11.3006 3.17667V10.1049L6.00002 12.4378L0.699417 10.1049V3.17667L6.00002 0.84375Z" fill="#BD6428"/>
<path fill-rule="evenodd" clip-rule="evenodd" d="M6.00003 4.02721L11.3006 3.17627V10.1045L6.00003 12.4374V4.02721Z" fill="#A35623"/>
<path fill-rule="evenodd" clip-rule="evenodd" d="M5.99997 0.84375L11.3006 3.17664L5.99997 5.50965L0.699371 3.17664L5.99997 0.84375Z" fill="#994F1F"/>
<path fill-rule="evenodd" clip-rule="evenodd" d="M2.45404 3.94888L2.72285 3.83057L4.50954 4.62091L4.2453 4.73721V6.40315C4.2453 6.4713 4.17503 6.508 4.12922 6.46385L3.3108 5.67486L2.54536 5.9443C2.4998 5.96033 2.45402 5.92216 2.45402 5.86818L2.45404 3.94888Z" fill="#EFF4F7"/>
<path fill-rule="evenodd" clip-rule="evenodd" d="M7.75454 1.61572L9.54585 2.40414C7.77904 3.18182 6.01217 3.95956 4.2453 4.73709L2.45404 3.94873L7.75454 1.61572Z" fill="#E2E3E3"/>
</g>
<defs>
<clipPath id="clip0_15788_7421">
<rect width="12" height="12" fill="white" transform="translate(0 0.640625)"/>
</clipPath>
</defs>
</svg>
